General
Format                                   : Matroska
File size                                : 963 MiB
Duration                                 : 9mn 34s
Overall bit rate                         : 14.1 Mbps
Writing application                      : mkvmerge v3.4.0 ('Rapunzel')

Video
ID                                       : 1
Format                                   : AVC
Format/Info                              : Advanced Video Codec
Format profile                           : High@L4.0
Format settings, CABAC                   : Yes
Format settings, ReFrames                : 4 frames
Codec ID                                 : V_MPEG4/ISO/AVC
Bit rate                                 : 12.1 Mbps
Width                                    : 1 920 pixels
Height                                   : 800 pixels
Display aspect ratio                     : 2.40:1
Frame rate mode                          : Variable
Original frame rate                      : 23.976 fps
Color space                              : YUV
Chroma subsampling                       : 4:2:0
Bit depth                                : 8 bits
Scan type                                : Progressive
Title                                    : Final Flight of the Osiris [The Animatrix]
Writing library                          : x264 core 125 r2200bm 999b753
Encoding settings                        : cabac=1 / ref=3 / deblock=1:0:0 / analyse=0x3:0x113 / me=esa / subme=7 / psy=1 / psy_rd=1.00:0.00 / mixed_ref=1 / me_range=32 / chroma_me=1 / trellis=1 / 8x8dct=1 / cqm=0 / deadzone=21,11 / fast_pskip=1 / chroma_qp_offset=-2 / threads=6 / lookahead_threads=1 / sliced_threads=0 / nr=0 / decimate=1 / interlaced=0 / bluray_compat=0 / constrained_intra=0 / bframes=3 / b_pyramid=2 / b_adapt=1 / b_bias=0 / direct=1 / weightb=1 / open_gop=0 / weightp=2 / keyint=250 / keyint_min=23 / scenecut=40 / intra_refresh=0 / rc_lookahead=40 / rc=crf / mbtree=1 / crf=12.0 / qcomp=0.60 / qpmin=0 / qpmax=69 / qpstep=4 / ip_ratio=1.40 / aq=1:1.00
Language                                 : English
Default                                  : Yes
Forced                                   : No

Audio #1
ID                                       : 2
Format                                   : AC-3
Format/Info                              : Audio Coding 3
Mode extension                           : CM (complete main)
Format settings, Endianness              : Big
Codec ID                                 : A_AC3
Duration                                 : 9mn 34s
Bit rate mode                            : Constant
Bit rate                                 : 640 Kbps
Channel(s)                               : 6 channels
Channel positions                        : Front: L C R, Side: L R, LFE
Sampling rate                            : 48.0 KHz
Bit depth                                : 16 bits
Compression mode                         : Lossy
Stream size                              : 43.8 MiB (5%)
Title                                    : Final Flight of the Osiris [The Animatrix]
Language                                 : English
Default                                  : Yes
Forced                                   : No

Audio #2
ID                                       : 3
Format                                   : AC-3
Format/Info                              : Audio Coding 3
Mode extension                           : CM (complete main)
Format settings, Endianness              : Big
Codec ID                                 : A_AC3
Duration                                 : 9mn 34s
Bit rate mode                            : Constant
Bit rate                                 : 640 Kbps
Channel(s)                               : 6 channels
Channel positions                        : Front: L C R, Side: L R, LFE
Sampling rate                            : 48.0 KHz
Bit depth                                : 16 bits
Compression mode                         : Lossy
Stream size                              : 43.8 MiB (5%)
Title                                    : πâòπéíπéñπâèπâ½πâ╗πâòπâ⌐πéñπâêπâ╗πé¬πâûπâ╗πé╢πâ╗πé¬πé╖πâ¬πé╣ [πéóπâïπâ₧πâêπâ¬πââπé»πé╣]
Language                                 : Japanese
Default                                  : No
Forced                                   : No

Audio #3
ID                                       : 4
Format                                   : AC-3
Format/Info                              : Audio Coding 3
Mode extension                           : CM (complete main)
Format settings, Endianness              : Big
Codec ID                                 : A_AC3
Duration                                 : 9mn 34s
Bit rate mode                            : Constant
Bit rate                                 : 384 Kbps
Channel(s)                               : 6 channels
Channel positions                        : Front: L C R, Side: L R, LFE
Sampling rate                            : 48.0 KHz
Bit depth                                : 16 bits
Compression mode                         : Lossy
Stream size                              : 26.3 MiB (3%)
Title                                    : ╨ƒ╨╛╤ü╨╗╨╡╨┤╨╜╨╕╨╣ ╨┐╨╛╨╗╤æ╤é ┬½╨₧╤ü╨╕╤Ç╨╕╤ü╨░┬╗ [╨É╨╜╨╕╨╝╨░╤é╤Ç╨╕╤å╨░]
Language                                 : Russian
Default                                  : No
Forced                                   : No

Text #1
ID                                       : 5
Format                                   : UTF-8
Codec ID                                 : S_TEXT/UTF8
Codec ID/Info                            : UTF-8 Plain Text
Title                                    : Final Flight of the Osiris [The Animatrix]
Language                                 : English
Default                                  : No
Forced                                   : No

Text #2
ID                                       : 6
Format                                   : UTF-8
Codec ID                                 : S_TEXT/UTF8
Codec ID/Info                            : UTF-8 Plain Text
Title                                    : ╨ƒ╨╛╤ü╨╗╨╡╨┤╨╜╨╕╨╣ ╨┐╨╛╨╗╤æ╤é ┬½╨₧╤ü╨╕╤Ç╨╕╤ü╨░┬╗ [╨É╨╜╨╕╨╝╨░╤é╤Ç╨╕╤å╨░]
Language                                 : Russian
Default                                  : No
Forced                                   : No

